# xmcd
#
# Track frame offsets: 
#        150
#        20394
#        33744
#        43080
#        57493
#        71501
#        86695
#        104319
#        116790
#        126123
#        136777
#        151186
#        161529
#        176166
#        190726
#        198016
#        210170
#        225521
#        236546
#        255981
#        269782
#        283707
#        297428
#        309964
#
# Disc length: 4272 seconds
#
# Revision: 0
# Processed by: cddbd v1.5.2PL0 Copyright (c) Steve Scherf et al.
# Submitted via: ExactAudioCopyFreeDBPlugin 1.0
#
DISCID=5210ae18
DTITLE=Édith Piaf  - Edith PIAF best of [CD1]
DYEAR=2010
DGENRE=Oldies
TTITLE0=Milord
TTITLE1=La foule
TTITLE2=L'homme à la moto
TTITLE3=Plus bleu que tes yeux
TTITLE4=Jezebel
TTITLE5=Je hais les dimanches
TTITLE6=Marie la française
TTITLE7=Je t'ai dans la peau
TTITLE8=Tant qu'il y aura des jours
TTITLE9=Avec ce soleil
TTITLE10=Le chemain des forains
TTITLE11=Fais comme ci
TTITLE12=Un étranger
TTITLE13=Opinion publique
TTITLE14=Les neiges de finlande
TTITLE15=Les orgues de barbarie
TTITLE16=Une enfant
TTITLE17=Le ballet des coeurs
TTITLE18=J'men fous pas mal
TTITLE19=J'suis mordue
TTITLE20=La fête continue
TTITLE21=C'est merveilleux
TTITLE22=Je me souviens d'une chanson
TTITLE23=Rien de rien
EXTD=
EXTT0=
EXTT1=
EXTT2=
EXTT3=
EXTT4=
EXTT5=
EXTT6=
EXTT7=
EXTT8=
EXTT9=
EXTT10=
EXTT11=
EXTT12=
EXTT13=
EXTT14=
EXTT15=
EXTT16=
EXTT17=
EXTT18=
EXTT19=
EXTT20=
EXTT21=
EXTT22=
EXTT23=
PLAYORDER=
